<svg xmlns="http://www.w3.org/2000/svg" xmlns:xlink="http://www.w3.org/1999/xlink" width="2000" zoomAndPan="magnify" viewBox="0 0 1500 1499.999933" height="2000" preserveAspectRatio="xMidYMid meet" version="1.0"><defs><g/><clipPath id="63b7663725"><path d="M 1254.785156 70.804688 L 1318.503906 70.804688 L 1318.503906 134.519531 L 1254.785156 134.519531 Z M 1254.785156 70.804688 " clip-rule="nonzero"/></clipPath><clipPath id="09f3a970c6"><rect x="0" width="1319" y="0" height="490"/></clipPath></defs><g transform="matrix(1, 0, 0, 1, 94, 462)"><g clip-path="url(#09f3a970c6)"><path fill="#000000" d="M 1277.324219 97.160156 L 1277.324219 113.203125 L 1271.1875 113.203125 L 1271.1875 97.160156 L 1266.816406 97.160156 L 1266.816406 92.105469 L 1281.699219 92.105469 L 1281.699219 97.160156 L 1277.324219 97.160156 " fill-opacity="1" fill-rule="nonzero"/><path fill="#000000" d="M 1306.476562 92.105469 L 1306.476562 113.203125 L 1300.464844 113.203125 L 1300.464844 98.117188 L 1296.558594 113.203125 L 1292.449219 113.203125 L 1288.390625 98.117188 L 1288.390625 113.203125 L 1283.539062 113.203125 L 1283.539062 92.105469 L 1292 92.105469 L 1295.0625 103.3125 L 1297.984375 92.105469 L 1306.476562 92.105469 " fill-opacity="1" fill-rule="nonzero"/><g clip-path="url(#63b7663725)"><path fill="#000000" d="M 1286.644531 75.996094 C 1271.941406 75.996094 1259.980469 87.960938 1259.980469 102.664062 C 1259.980469 117.367188 1271.941406 129.328125 1286.644531 129.328125 C 1301.347656 129.328125 1313.308594 117.367188 1313.308594 102.664062 C 1313.308594 87.960938 1301.347656 75.996094 1286.644531 75.996094 Z M 1286.644531 134.523438 C 1282.34375 134.523438 1278.171875 133.679688 1274.242188 132.019531 C 1270.449219 130.414062 1267.042969 128.117188 1264.117188 125.191406 C 1261.191406 122.265625 1258.894531 118.859375 1257.289062 115.066406 C 1255.628906 111.132812 1254.785156 106.960938 1254.785156 102.664062 C 1254.785156 98.363281 1255.628906 94.191406 1257.289062 90.261719 C 1258.894531 86.464844 1261.191406 83.058594 1264.117188 80.132812 C 1267.042969 77.210938 1270.449219 74.914062 1274.242188 73.308594 C 1278.171875 71.644531 1282.347656 70.804688 1286.644531 70.804688 C 1290.945312 70.804688 1295.117188 71.644531 1299.046875 73.308594 C 1302.84375 74.914062 1306.25 77.210938 1309.171875 80.132812 C 1312.097656 83.058594 1314.394531 86.464844 1316 90.261719 C 1317.664062 94.191406 1318.503906 98.363281 1318.503906 102.664062 C 1318.503906 106.960938 1317.664062 111.132812 1316 115.066406 C 1314.394531 118.859375 1312.097656 122.265625 1309.171875 125.191406 C 1306.25 128.117188 1302.84375 130.414062 1299.046875 132.019531 C 1295.117188 133.679688 1290.945312 134.523438 1286.644531 134.523438 " fill-opacity="1" fill-rule="nonzero"/></g><g fill="#000000" fill-opacity="1"><g transform="translate(9.027945, 89.918002)"><g><path d="M 46.15625 0 L 17.328125 0 L 17.328125 -2.96875 C 18.835938 -3.519531 20.359375 -4 21.890625 -4.40625 C 23.429688 -4.820312 25.09375 -5.164062 26.875 -5.4375 L 26.875 -66.46875 L 11.1875 -66.46875 L 5.75 -51.796875 L 3.1875 -51.796875 C 2.976562 -53.171875 2.804688 -54.726562 2.671875 -56.46875 C 2.535156 -58.207031 2.414062 -59.984375 2.3125 -61.796875 C 2.207031 -63.609375 2.117188 -65.382812 2.046875 -67.125 C 1.984375 -68.875 1.953125 -70.4375 1.953125 -71.8125 L 61.546875 -71.8125 C 61.546875 -70.4375 61.507812 -68.894531 61.4375 -67.1875 C 61.375 -65.476562 61.289062 -63.71875 61.1875 -61.90625 C 61.082031 -60.09375 60.976562 -58.3125 60.875 -56.5625 C 60.769531 -54.820312 60.617188 -53.234375 60.421875 -51.796875 L 57.75 -51.796875 L 52.421875 -66.46875 L 36.71875 -66.46875 L 36.71875 -5.4375 C 38.5 -5.09375 40.15625 -4.75 41.6875 -4.40625 C 43.226562 -4.0625 44.71875 -3.582031 46.15625 -2.96875 Z M 46.15625 0 "/></g></g></g><g fill="#000000" fill-opacity="1"><g transform="translate(78.764937, 89.918002)"><g><path d="M 28.921875 0 L 2.96875 0 L 2.96875 -2.96875 C 5.707031 -4.0625 8.515625 -4.882812 11.390625 -5.4375 L 11.390625 -66.265625 C 8.171875 -66.742188 5.363281 -67.597656 2.96875 -68.828125 L 2.96875 -71.8125 L 28.921875 -71.8125 L 28.921875 -68.828125 C 27.765625 -68.210938 26.535156 -67.695312 25.234375 -67.28125 C 23.929688 -66.875 22.597656 -66.535156 21.234375 -66.265625 L 21.234375 -39.5 L 53.4375 -39.5 L 53.4375 -66.265625 C 52.007812 -66.609375 50.660156 -66.984375 49.390625 -67.390625 C 48.128906 -67.804688 46.914062 -68.285156 45.75 -68.828125 L 45.75 -71.8125 L 71.703125 -71.8125 L 71.703125 -68.828125 C 70.472656 -68.140625 69.117188 -67.609375 67.640625 -67.234375 C 66.171875 -66.859375 64.722656 -66.535156 63.296875 -66.265625 L 63.296875 -5.4375 C 64.867188 -5.164062 66.367188 -4.820312 67.796875 -4.40625 C 69.234375 -4 70.535156 -3.519531 71.703125 -2.96875 L 71.703125 0 L 45.75 0 L 45.75 -2.96875 C 48.207031 -4.0625 50.769531 -4.882812 53.4375 -5.4375 L 53.4375 -34.15625 L 21.234375 -34.15625 L 21.234375 -5.4375 C 22.597656 -5.164062 23.929688 -4.820312 25.234375 -4.40625 C 26.535156 -4 27.765625 -3.519531 28.921875 -2.96875 Z M 28.921875 0 "/></g></g></g><g fill="#000000" fill-opacity="1"><g transform="translate(159.679439, 89.918002)"><g><path d="M 51.59375 -71.8125 C 51.53125 -69.070312 51.410156 -66.316406 51.234375 -63.546875 C 51.066406 -60.773438 50.8125 -57.988281 50.46875 -55.1875 L 47.796875 -55.1875 L 43.59375 -66.46875 L 21.234375 -66.46875 L 21.234375 -39.28125 L 37.953125 -39.28125 L 41.953125 -46.875 L 44.515625 -46.875 C 44.929688 -40.101562 44.929688 -33.195312 44.515625 -26.15625 L 41.953125 -26.15625 L 37.953125 -33.953125 L 21.234375 -33.953125 L 21.234375 -5.328125 L 44.828125 -5.328125 L 49.859375 -17.640625 L 52.421875 -17.640625 C 52.898438 -14.765625 53.238281 -11.859375 53.4375 -8.921875 C 53.644531 -5.984375 53.679688 -3.007812 53.546875 0 L 2.96875 0 L 2.96875 -2.96875 C 5.363281 -4.0625 8.171875 -4.882812 11.390625 -5.4375 L 11.390625 -66.265625 C 10.015625 -66.535156 8.609375 -66.894531 7.171875 -67.34375 C 5.742188 -67.789062 4.34375 -68.285156 2.96875 -68.828125 L 2.96875 -71.8125 Z M 51.59375 -71.8125 "/></g></g></g><g fill="#000000" fill-opacity="1"><g transform="translate(8.094792, 338.415624)"><g><path d="M 162.953125 -4.671875 C 163.503906 -4.304688 163.503906 -3.847656 162.953125 -3.296875 C 162.765625 -3.117188 162.671875 -3.03125 162.671875 -3.03125 C 157.171875 2.289062 150.65625 4.953125 143.125 4.953125 C 135.238281 4.953125 128.539062 2.199219 123.03125 -3.296875 C 117.53125 -8.804688 114.78125 -15.503906 114.78125 -23.390625 L 114.78125 -47.890625 C 114.78125 -56.335938 113.953125 -64.140625 112.296875 -71.296875 C 110.648438 -78.453125 108.492188 -84.140625 105.828125 -88.359375 C 103.171875 -92.578125 100.191406 -94.6875 96.890625 -94.6875 C 96.335938 -94.6875 96.0625 -95.050781 96.0625 -95.78125 C 96.0625 -96.332031 96.335938 -96.609375 96.890625 -96.609375 C 98.171875 -96.609375 99.546875 -96.609375 101.015625 -96.609375 C 101.203125 -96.609375 101.382812 -96.609375 101.5625 -96.609375 C 104.863281 -96.609375 107.84375 -98.765625 110.5 -103.078125 C 113.164062 -107.390625 115.320312 -113.125 116.96875 -120.28125 C 118.625 -127.4375 119.453125 -135.238281 119.453125 -143.6875 C 119.453125 -152.125 118.625 -159.921875 116.96875 -167.078125 C 115.320312 -174.234375 113.164062 -179.921875 110.5 -184.140625 C 107.84375 -188.359375 104.863281 -190.46875 101.5625 -190.46875 L 54.78125 -190.46875 L 54.78125 -12.390625 C 54.78125 -9.265625 55.878906 -6.554688 58.078125 -4.265625 C 60.273438 -1.972656 62.9375 -0.828125 66.0625 -0.828125 C 66.789062 -0.828125 67.15625 -0.550781 67.15625 0 C 67.15625 0.726562 66.789062 1.09375 66.0625 1.09375 L 12.390625 1.09375 C 11.835938 1.09375 11.5625 0.726562 11.5625 0 C 11.5625 -0.550781 11.835938 -0.828125 12.390625 -0.828125 C 15.691406 -0.828125 18.441406 -1.972656 20.640625 -4.265625 C 22.847656 -6.554688 23.953125 -9.265625 23.953125 -12.390625 L 23.953125 -179.1875 C 23.953125 -182.300781 22.847656 -184.957031 20.640625 -187.15625 C 18.441406 -189.363281 15.691406 -190.46875 12.390625 -190.46875 C 11.835938 -190.46875 11.5625 -190.835938 11.5625 -191.578125 C 11.5625 -192.128906 11.835938 -192.40625 12.390625 -192.40625 L 101.5625 -192.40625 C 110.550781 -192.40625 118.757812 -190.203125 126.1875 -185.796875 C 133.625 -181.390625 139.546875 -175.515625 143.953125 -168.171875 C 148.359375 -160.835938 150.5625 -152.675781 150.5625 -143.6875 C 150.5625 -135.425781 148.679688 -127.851562 144.921875 -120.96875 C 141.160156 -114.09375 136.113281 -108.359375 129.78125 -103.765625 C 123.445312 -99.179688 116.335938 -96.335938 108.453125 -95.234375 C 119.085938 -92.671875 127.9375 -86.984375 135 -78.171875 C 142.070312 -69.359375 145.609375 -59.265625 145.609375 -47.890625 L 145.609375 -11.28125 C 145.609375 -8.71875 146.523438 -6.515625 148.359375 -4.671875 C 150.191406 -3.023438 152.347656 -2.15625 154.828125 -2.0625 C 157.304688 -1.96875 159.460938 -2.75 161.296875 -4.40625 C 161.296875 -4.40625 161.390625 -4.492188 161.578125 -4.671875 C 162.117188 -5.222656 162.578125 -5.222656 162.953125 -4.671875 Z M 162.953125 -4.671875 "/></g></g></g><g fill="#000000" fill-opacity="1"><g transform="translate(179.531132, 338.415624)"><g><path d="M 151.65625 -145.609375 C 151.65625 -153.867188 149.632812 -161.390625 145.59375 -168.171875 C 141.5625 -174.960938 136.148438 -180.375 129.359375 -184.40625 C 122.578125 -188.445312 115.054688 -190.46875 106.796875 -190.46875 L 54.78125 -190.46875 L 54.78125 -0.828125 L 106.796875 -0.828125 C 115.054688 -0.828125 122.578125 -2.890625 129.359375 -7.015625 C 136.148438 -11.148438 141.5625 -16.609375 145.59375 -23.390625 C 149.632812 -30.179688 151.65625 -37.707031 151.65625 -45.96875 C 151.65625 -46.519531 152.023438 -46.796875 152.765625 -46.796875 C 153.316406 -46.796875 153.59375 -46.519531 153.59375 -45.96875 L 153.59375 0 C 153.59375 0.550781 153.316406 0.828125 152.765625 0.828125 L 53.671875 0.828125 C 53.859375 0.828125 53.859375 0.828125 53.671875 0.828125 L 12.390625 0.828125 C 11.835938 0.828125 11.5625 0.550781 11.5625 0 C 11.5625 -0.550781 11.835938 -0.828125 12.390625 -0.828125 C 15.691406 -0.828125 18.441406 -1.972656 20.640625 -4.265625 C 22.847656 -6.554688 23.953125 -9.265625 23.953125 -12.390625 L 23.953125 -179.1875 C 23.953125 -182.300781 22.847656 -184.957031 20.640625 -187.15625 C 18.441406 -189.363281 15.691406 -190.46875 12.390625 -190.46875 C 11.835938 -190.46875 11.5625 -190.835938 11.5625 -191.578125 C 11.5625 -192.128906 11.835938 -192.40625 12.390625 -192.40625 L 152.765625 -192.40625 C 153.316406 -192.40625 153.59375 -192.128906 153.59375 -191.578125 L 153.59375 -145.609375 C 153.59375 -145.054688 153.316406 -144.78125 152.765625 -144.78125 C 152.023438 -144.78125 151.65625 -145.054688 151.65625 -145.609375 Z M 104.59375 -128.265625 C 104.59375 -129.003906 104.960938 -129.375 105.703125 -129.375 C 106.242188 -129.375 106.515625 -129.003906 106.515625 -128.265625 L 106.515625 -63.03125 C 106.515625 -62.476562 106.242188 -62.203125 105.703125 -62.203125 C 104.960938 -62.203125 104.59375 -62.476562 104.59375 -63.03125 C 104.59375 -68.90625 103.171875 -74.226562 100.328125 -79 C 97.484375 -83.769531 93.675781 -87.578125 88.90625 -90.421875 C 84.132812 -93.265625 78.8125 -94.6875 72.9375 -94.6875 C 72.382812 -94.6875 72.109375 -95.050781 72.109375 -95.78125 C 72.109375 -96.332031 72.382812 -96.609375 72.9375 -96.609375 C 78.8125 -96.609375 84.132812 -98.03125 88.90625 -100.875 C 93.675781 -103.71875 97.484375 -107.570312 100.328125 -112.4375 C 103.171875 -117.300781 104.59375 -122.578125 104.59375 -128.265625 Z M 104.59375 -128.265625 "/></g></g></g><g fill="#000000" fill-opacity="1"><g transform="translate(346.564564, 338.415624)"><g><path d="M 183.59375 -192.40625 C 184.144531 -192.40625 184.421875 -192.128906 184.421875 -191.578125 C 184.421875 -190.835938 184.144531 -190.46875 183.59375 -190.46875 C 180.289062 -190.46875 177.03125 -189.320312 173.8125 -187.03125 C 170.601562 -184.738281 168.359375 -181.941406 167.078125 -178.640625 L 109.546875 -34.125 L 107.890625 -30.28125 L 93.859375 4.671875 C 93.859375 4.859375 93.859375 4.953125 93.859375 4.953125 C 93.859375 4.953125 93.765625 4.953125 93.578125 4.953125 C 93.578125 5.140625 93.578125 5.140625 93.578125 4.953125 C 93.578125 5.140625 93.578125 5.234375 93.578125 5.234375 C 93.398438 5.234375 93.3125 5.234375 93.3125 5.234375 C 93.125 5.234375 93.03125 5.234375 93.03125 5.234375 C 93.03125 5.234375 92.941406 5.234375 92.765625 5.234375 C 92.578125 5.046875 92.484375 4.953125 92.484375 4.953125 C 92.296875 4.765625 92.203125 4.671875 92.203125 4.671875 L 19 -178.90625 C 17.707031 -182.03125 15.457031 -184.738281 12.25 -187.03125 C 9.039062 -189.320312 5.785156 -190.46875 2.484375 -190.46875 C 1.929688 -190.46875 1.65625 -190.835938 1.65625 -191.578125 C 1.65625 -192.128906 1.929688 -192.40625 2.484375 -192.40625 L 58.359375 -192.40625 C 59.085938 -192.40625 59.453125 -192.128906 59.453125 -191.578125 C 59.453125 -190.835938 59.085938 -190.46875 58.359375 -190.46875 C 55.421875 -190.46875 53.304688 -189.550781 52.015625 -187.71875 C 50.546875 -185.519531 50.457031 -182.769531 51.75 -179.46875 L 108.71875 -37.15625 L 165.421875 -179.46875 C 166.710938 -182.769531 166.625 -185.519531 165.15625 -187.71875 C 163.863281 -189.550781 161.75 -190.46875 158.8125 -190.46875 C 158.269531 -190.46875 158 -190.835938 158 -191.578125 C 158 -192.128906 158.269531 -192.40625 158.8125 -192.40625 L 171.203125 -192.40625 C 171.203125 -192.40625 172.210938 -192.40625 174.234375 -192.40625 C 176.253906 -192.40625 178.316406 -192.40625 180.421875 -192.40625 C 182.535156 -192.40625 183.59375 -192.40625 183.59375 -192.40625 Z M 183.59375 -192.40625 "/></g></g></g><g fill="#000000" fill-opacity="1"><g transform="translate(532.860502, 338.415624)"><g><path d="M 66.0625 -0.828125 C 66.789062 -0.828125 67.15625 -0.550781 67.15625 0 C 67.15625 0.550781 66.789062 0.828125 66.0625 0.828125 L 12.390625 0.828125 C 11.835938 0.828125 11.5625 0.550781 11.5625 0 C 11.5625 -0.550781 11.835938 -0.828125 12.390625 -0.828125 C 15.691406 -0.828125 18.441406 -1.972656 20.640625 -4.265625 C 22.847656 -6.554688 23.953125 -9.265625 23.953125 -12.390625 L 23.953125 -179.1875 C 23.953125 -182.300781 22.847656 -184.957031 20.640625 -187.15625 C 18.441406 -189.363281 15.691406 -190.46875 12.390625 -190.46875 C 11.835938 -190.46875 11.5625 -190.835938 11.5625 -191.578125 C 11.5625 -192.128906 11.835938 -192.40625 12.390625 -192.40625 L 66.0625 -192.40625 C 66.789062 -192.40625 67.15625 -192.128906 67.15625 -191.578125 C 67.15625 -190.835938 66.789062 -190.46875 66.0625 -190.46875 C 62.9375 -190.46875 60.273438 -189.363281 58.078125 -187.15625 C 55.878906 -184.957031 54.78125 -182.300781 54.78125 -179.1875 L 54.78125 -12.390625 C 54.78125 -9.265625 55.878906 -6.554688 58.078125 -4.265625 C 60.273438 -1.972656 62.9375 -0.828125 66.0625 -0.828125 Z M 66.0625 -0.828125 "/></g></g></g><g fill="#000000" fill-opacity="1"><g transform="translate(611.561591, 338.415624)"><g><path d="M 151.65625 -145.609375 C 151.65625 -153.867188 149.632812 -161.390625 145.59375 -168.171875 C 141.5625 -174.960938 136.148438 -180.375 129.359375 -184.40625 C 122.578125 -188.445312 115.054688 -190.46875 106.796875 -190.46875 L 54.78125 -190.46875 L 54.78125 -0.828125 L 106.796875 -0.828125 C 115.054688 -0.828125 122.578125 -2.890625 129.359375 -7.015625 C 136.148438 -11.148438 141.5625 -16.609375 145.59375 -23.390625 C 149.632812 -30.179688 151.65625 -37.707031 151.65625 -45.96875 C 151.65625 -46.519531 152.023438 -46.796875 152.765625 -46.796875 C 153.316406 -46.796875 153.59375 -46.519531 153.59375 -45.96875 L 153.59375 0 C 153.59375 0.550781 153.316406 0.828125 152.765625 0.828125 L 53.671875 0.828125 C 53.859375 0.828125 53.859375 0.828125 53.671875 0.828125 L 12.390625 0.828125 C 11.835938 0.828125 11.5625 0.550781 11.5625 0 C 11.5625 -0.550781 11.835938 -0.828125 12.390625 -0.828125 C 15.691406 -0.828125 18.441406 -1.972656 20.640625 -4.265625 C 22.847656 -6.554688 23.953125 -9.265625 23.953125 -12.390625 L 23.953125 -179.1875 C 23.953125 -182.300781 22.847656 -184.957031 20.640625 -187.15625 C 18.441406 -189.363281 15.691406 -190.46875 12.390625 -190.46875 C 11.835938 -190.46875 11.5625 -190.835938 11.5625 -191.578125 C 11.5625 -192.128906 11.835938 -192.40625 12.390625 -192.40625 L 152.765625 -192.40625 C 153.316406 -192.40625 153.59375 -192.128906 153.59375 -191.578125 L 153.59375 -145.609375 C 153.59375 -145.054688 153.316406 -144.78125 152.765625 -144.78125 C 152.023438 -144.78125 151.65625 -145.054688 151.65625 -145.609375 Z M 104.59375 -128.265625 C 104.59375 -129.003906 104.960938 -129.375 105.703125 -129.375 C 106.242188 -129.375 106.515625 -129.003906 106.515625 -128.265625 L 106.515625 -63.03125 C 106.515625 -62.476562 106.242188 -62.203125 105.703125 -62.203125 C 104.960938 -62.203125 104.59375 -62.476562 104.59375 -63.03125 C 104.59375 -68.90625 103.171875 -74.226562 100.328125 -79 C 97.484375 -83.769531 93.675781 -87.578125 88.90625 -90.421875 C 84.132812 -93.265625 78.8125 -94.6875 72.9375 -94.6875 C 72.382812 -94.6875 72.109375 -95.050781 72.109375 -95.78125 C 72.109375 -96.332031 72.382812 -96.609375 72.9375 -96.609375 C 78.8125 -96.609375 84.132812 -98.03125 88.90625 -100.875 C 93.675781 -103.71875 97.484375 -107.570312 100.328125 -112.4375 C 103.171875 -117.300781 104.59375 -122.578125 104.59375 -128.265625 Z M 104.59375 -128.265625 "/></g></g></g><g fill="#000000" fill-opacity="1"><g transform="translate(778.595023, 338.415624)"><g><path d="M 162.953125 -4.671875 C 163.503906 -4.304688 163.503906 -3.847656 162.953125 -3.296875 C 162.765625 -3.117188 162.671875 -3.03125 162.671875 -3.03125 C 157.171875 2.289062 150.65625 4.953125 143.125 4.953125 C 135.238281 4.953125 128.539062 2.199219 123.03125 -3.296875 C 117.53125 -8.804688 114.78125 -15.503906 114.78125 -23.390625 L 114.78125 -47.890625 C 114.78125 -56.335938 113.953125 -64.140625 112.296875 -71.296875 C 110.648438 -78.453125 108.492188 -84.140625 105.828125 -88.359375 C 103.171875 -92.578125 100.191406 -94.6875 96.890625 -94.6875 C 96.335938 -94.6875 96.0625 -95.050781 96.0625 -95.78125 C 96.0625 -96.332031 96.335938 -96.609375 96.890625 -96.609375 C 98.171875 -96.609375 99.546875 -96.609375 101.015625 -96.609375 C 101.203125 -96.609375 101.382812 -96.609375 101.5625 -96.609375 C 104.863281 -96.609375 107.84375 -98.765625 110.5 -103.078125 C 113.164062 -107.390625 115.320312 -113.125 116.96875 -120.28125 C 118.625 -127.4375 119.453125 -135.238281 119.453125 -143.6875 C 119.453125 -152.125 118.625 -159.921875 116.96875 -167.078125 C 115.320312 -174.234375 113.164062 -179.921875 110.5 -184.140625 C 107.84375 -188.359375 104.863281 -190.46875 101.5625 -190.46875 L 54.78125 -190.46875 L 54.78125 -12.390625 C 54.78125 -9.265625 55.878906 -6.554688 58.078125 -4.265625 C 60.273438 -1.972656 62.9375 -0.828125 66.0625 -0.828125 C 66.789062 -0.828125 67.15625 -0.550781 67.15625 0 C 67.15625 0.726562 66.789062 1.09375 66.0625 1.09375 L 12.390625 1.09375 C 11.835938 1.09375 11.5625 0.726562 11.5625 0 C 11.5625 -0.550781 11.835938 -0.828125 12.390625 -0.828125 C 15.691406 -0.828125 18.441406 -1.972656 20.640625 -4.265625 C 22.847656 -6.554688 23.953125 -9.265625 23.953125 -12.390625 L 23.953125 -179.1875 C 23.953125 -182.300781 22.847656 -184.957031 20.640625 -187.15625 C 18.441406 -189.363281 15.691406 -190.46875 12.390625 -190.46875 C 11.835938 -190.46875 11.5625 -190.835938 11.5625 -191.578125 C 11.5625 -192.128906 11.835938 -192.40625 12.390625 -192.40625 L 101.5625 -192.40625 C 110.550781 -192.40625 118.757812 -190.203125 126.1875 -185.796875 C 133.625 -181.390625 139.546875 -175.515625 143.953125 -168.171875 C 148.359375 -160.835938 150.5625 -152.675781 150.5625 -143.6875 C 150.5625 -135.425781 148.679688 -127.851562 144.921875 -120.96875 C 141.160156 -114.09375 136.113281 -108.359375 129.78125 -103.765625 C 123.445312 -99.179688 116.335938 -96.335938 108.453125 -95.234375 C 119.085938 -92.671875 127.9375 -86.984375 135 -78.171875 C 142.070312 -69.359375 145.609375 -59.265625 145.609375 -47.890625 L 145.609375 -11.28125 C 145.609375 -8.71875 146.523438 -6.515625 148.359375 -4.671875 C 150.191406 -3.023438 152.347656 -2.15625 154.828125 -2.0625 C 157.304688 -1.96875 159.460938 -2.75 161.296875 -4.40625 C 161.296875 -4.40625 161.390625 -4.492188 161.578125 -4.671875 C 162.117188 -5.222656 162.578125 -5.222656 162.953125 -4.671875 Z M 162.953125 -4.671875 "/></g></g></g><g fill="#000000" fill-opacity="1"><g transform="translate(950.031364, 338.415624)"><g><path d="M 151.65625 -145.609375 C 151.65625 -153.867188 149.632812 -161.390625 145.59375 -168.171875 C 141.5625 -174.960938 136.148438 -180.375 129.359375 -184.40625 C 122.578125 -188.445312 115.054688 -190.46875 106.796875 -190.46875 L 54.78125 -190.46875 L 54.78125 -0.828125 L 106.796875 -0.828125 C 115.054688 -0.828125 122.578125 -2.890625 129.359375 -7.015625 C 136.148438 -11.148438 141.5625 -16.609375 145.59375 -23.390625 C 149.632812 -30.179688 151.65625 -37.707031 151.65625 -45.96875 C 151.65625 -46.519531 152.023438 -46.796875 152.765625 -46.796875 C 153.316406 -46.796875 153.59375 -46.519531 153.59375 -45.96875 L 153.59375 0 C 153.59375 0.550781 153.316406 0.828125 152.765625 0.828125 L 53.671875 0.828125 C 53.859375 0.828125 53.859375 0.828125 53.671875 0.828125 L 12.390625 0.828125 C 11.835938 0.828125 11.5625 0.550781 11.5625 0 C 11.5625 -0.550781 11.835938 -0.828125 12.390625 -0.828125 C 15.691406 -0.828125 18.441406 -1.972656 20.640625 -4.265625 C 22.847656 -6.554688 23.953125 -9.265625 23.953125 -12.390625 L 23.953125 -179.1875 C 23.953125 -182.300781 22.847656 -184.957031 20.640625 -187.15625 C 18.441406 -189.363281 15.691406 -190.46875 12.390625 -190.46875 C 11.835938 -190.46875 11.5625 -190.835938 11.5625 -191.578125 C 11.5625 -192.128906 11.835938 -192.40625 12.390625 -192.40625 L 152.765625 -192.40625 C 153.316406 -192.40625 153.59375 -192.128906 153.59375 -191.578125 L 153.59375 -145.609375 C 153.59375 -145.054688 153.316406 -144.78125 152.765625 -144.78125 C 152.023438 -144.78125 151.65625 -145.054688 151.65625 -145.609375 Z M 104.59375 -128.265625 C 104.59375 -129.003906 104.960938 -129.375 105.703125 -129.375 C 106.242188 -129.375 106.515625 -129.003906 106.515625 -128.265625 L 106.515625 -63.03125 C 106.515625 -62.476562 106.242188 -62.203125 105.703125 -62.203125 C 104.960938 -62.203125 104.59375 -62.476562 104.59375 -63.03125 C 104.59375 -68.90625 103.171875 -74.226562 100.328125 -79 C 97.484375 -83.769531 93.675781 -87.578125 88.90625 -90.421875 C 84.132812 -93.265625 78.8125 -94.6875 72.9375 -94.6875 C 72.382812 -94.6875 72.109375 -95.050781 72.109375 -95.78125 C 72.109375 -96.332031 72.382812 -96.609375 72.9375 -96.609375 C 78.8125 -96.609375 84.132812 -98.03125 88.90625 -100.875 C 93.675781 -103.71875 97.484375 -107.570312 100.328125 -112.4375 C 103.171875 -117.300781 104.59375 -122.578125 104.59375 -128.265625 Z M 104.59375 -128.265625 "/></g></g></g><g fill="#000000" fill-opacity="1"><g transform="translate(1117.064795, 338.415624)"><g><path d="M 151.65625 -145.609375 C 151.65625 -153.867188 149.632812 -161.390625 145.59375 -168.171875 C 141.5625 -174.960938 136.148438 -180.375 129.359375 -184.40625 C 122.578125 -188.445312 115.054688 -190.46875 106.796875 -190.46875 L 54.78125 -190.46875 L 54.78125 -0.828125 L 106.796875 -0.828125 C 115.054688 -0.828125 122.578125 -2.890625 129.359375 -7.015625 C 136.148438 -11.148438 141.5625 -16.609375 145.59375 -23.390625 C 149.632812 -30.179688 151.65625 -37.707031 151.65625 -45.96875 C 151.65625 -46.519531 152.023438 -46.796875 152.765625 -46.796875 C 153.316406 -46.796875 153.59375 -46.519531 153.59375 -45.96875 L 153.59375 0 C 153.59375 0.550781 153.316406 0.828125 152.765625 0.828125 L 53.671875 0.828125 C 53.859375 0.828125 53.859375 0.828125 53.671875 0.828125 L 12.390625 0.828125 C 11.835938 0.828125 11.5625 0.550781 11.5625 0 C 11.5625 -0.550781 11.835938 -0.828125 12.390625 -0.828125 C 15.691406 -0.828125 18.441406 -1.972656 20.640625 -4.265625 C 22.847656 -6.554688 23.953125 -9.265625 23.953125 -12.390625 L 23.953125 -179.1875 C 23.953125 -182.300781 22.847656 -184.957031 20.640625 -187.15625 C 18.441406 -189.363281 15.691406 -190.46875 12.390625 -190.46875 C 11.835938 -190.46875 11.5625 -190.835938 11.5625 -191.578125 C 11.5625 -192.128906 11.835938 -192.40625 12.390625 -192.40625 L 152.765625 -192.40625 C 153.316406 -192.40625 153.59375 -192.128906 153.59375 -191.578125 L 153.59375 -145.609375 C 153.59375 -145.054688 153.316406 -144.78125 152.765625 -144.78125 C 152.023438 -144.78125 151.65625 -145.054688 151.65625 -145.609375 Z M 104.59375 -128.265625 C 104.59375 -129.003906 104.960938 -129.375 105.703125 -129.375 C 106.242188 -129.375 106.515625 -129.003906 106.515625 -128.265625 L 106.515625 -63.03125 C 106.515625 -62.476562 106.242188 -62.203125 105.703125 -62.203125 C 104.960938 -62.203125 104.59375 -62.476562 104.59375 -63.03125 C 104.59375 -68.90625 103.171875 -74.226562 100.328125 -79 C 97.484375 -83.769531 93.675781 -87.578125 88.90625 -90.421875 C 84.132812 -93.265625 78.8125 -94.6875 72.9375 -94.6875 C 72.382812 -94.6875 72.109375 -95.050781 72.109375 -95.78125 C 72.109375 -96.332031 72.382812 -96.609375 72.9375 -96.609375 C 78.8125 -96.609375 84.132812 -98.03125 88.90625 -100.875 C 93.675781 -103.71875 97.484375 -107.570312 100.328125 -112.4375 C 103.171875 -117.300781 104.59375 -122.578125 104.59375 -128.265625 Z M 104.59375 -128.265625 "/></g></g></g><g fill="#000000" fill-opacity="1"><g transform="translate(819.880974, 451.055041)"><g><path d="M 14.359375 -6.609375 C 15.117188 -5.835938 16.101562 -5.179688 17.3125 -4.640625 C 18.53125 -4.097656 20.351562 -3.828125 22.78125 -3.828125 C 24.820312 -3.828125 26.734375 -4.097656 28.515625 -4.640625 C 30.304688 -5.179688 31.851562 -5.976562 33.15625 -7.03125 C 34.46875 -8.082031 35.503906 -9.359375 36.265625 -10.859375 C 37.035156 -12.359375 37.421875 -14.066406 37.421875 -15.984375 C 37.421875 -18.535156 36.640625 -20.671875 35.078125 -22.390625 C 33.515625 -24.117188 31.566406 -25.648438 29.234375 -26.984375 C 26.910156 -28.328125 24.375 -29.632812 21.625 -30.90625 C 18.882812 -32.1875 16.347656 -33.703125 14.015625 -35.453125 C 11.691406 -37.210938 9.75 -39.316406 8.1875 -41.765625 C 6.625 -44.222656 5.84375 -47.304688 5.84375 -51.015625 C 5.84375 -53.691406 6.316406 -56.082031 7.265625 -58.1875 C 8.222656 -60.289062 9.578125 -62.078125 11.328125 -63.546875 C 13.085938 -65.015625 15.179688 -66.144531 17.609375 -66.9375 C 20.035156 -67.738281 22.75 -68.140625 25.75 -68.140625 C 29.632812 -68.140625 33.1875 -67.835938 36.40625 -67.234375 C 39.632812 -66.628906 42.175781 -65.878906 44.03125 -64.984375 C 44.03125 -63.898438 43.945312 -62.640625 43.78125 -61.203125 C 43.625 -59.765625 43.429688 -58.28125 43.203125 -56.75 C 42.984375 -55.21875 42.742188 -53.734375 42.484375 -52.296875 C 42.234375 -50.867188 41.984375 -49.609375 41.734375 -48.515625 L 39.234375 -48.515625 L 35.40625 -61.640625 C 34.257812 -62.148438 32.804688 -62.53125 31.046875 -62.78125 C 29.296875 -63.039062 27.429688 -63.171875 25.453125 -63.171875 C 22.203125 -63.171875 19.585938 -62.257812 17.609375 -60.4375 C 15.628906 -58.613281 14.640625 -56.078125 14.640625 -52.828125 C 14.640625 -50.210938 15.421875 -48.007812 16.984375 -46.21875 C 18.546875 -44.4375 20.507812 -42.84375 22.875 -41.4375 C 25.238281 -40.03125 27.773438 -38.671875 30.484375 -37.359375 C 33.191406 -36.054688 35.722656 -34.546875 38.078125 -32.828125 C 40.441406 -31.109375 42.40625 -29.066406 43.96875 -26.703125 C 45.539062 -24.335938 46.328125 -21.398438 46.328125 -17.890625 C 46.328125 -15.023438 45.796875 -12.410156 44.734375 -10.046875 C 43.679688 -7.691406 42.164062 -5.679688 40.1875 -4.015625 C 38.21875 -2.359375 35.796875 -1.082031 32.921875 -0.1875 C 30.046875 0.707031 26.789062 1.15625 23.15625 1.15625 C 19.132812 1.15625 15.53125 0.675781 12.34375 -0.28125 C 9.15625 -1.238281 6.890625 -2.257812 5.546875 -3.34375 C 5.609375 -4.4375 5.71875 -5.75 5.875 -7.28125 C 6.039062 -8.8125 6.234375 -10.390625 6.453125 -12.015625 C 6.679688 -13.640625 6.921875 -15.21875 7.171875 -16.75 C 7.429688 -18.28125 7.6875 -19.585938 7.9375 -20.671875 L 10.4375 -20.671875 Z M 14.359375 -6.609375 "/></g></g></g><g fill="#000000" fill-opacity="1"><g transform="translate(879.055884, 451.055041)"><g><path d="M 43.0625 0 L 16.171875 0 L 16.171875 -2.78125 C 17.578125 -3.289062 19 -3.734375 20.4375 -4.109375 C 21.875 -4.492188 23.421875 -4.816406 25.078125 -5.078125 L 25.078125 -62.015625 L 10.4375 -62.015625 L 5.359375 -48.328125 L 2.96875 -48.328125 C 2.78125 -49.609375 2.617188 -51.0625 2.484375 -52.6875 C 2.359375 -54.3125 2.25 -55.96875 2.15625 -57.65625 C 2.0625 -59.351562 1.976562 -61.015625 1.90625 -62.640625 C 1.84375 -64.265625 1.8125 -65.71875 1.8125 -67 L 57.421875 -67 C 57.421875 -65.71875 57.390625 -64.28125 57.328125 -62.6875 C 57.265625 -61.09375 57.179688 -59.445312 57.078125 -57.75 C 56.984375 -56.0625 56.890625 -54.40625 56.796875 -52.78125 C 56.703125 -51.15625 56.5625 -49.671875 56.375 -48.328125 L 53.875 -48.328125 L 48.90625 -62.015625 L 34.265625 -62.015625 L 34.265625 -5.078125 C 35.921875 -4.753906 37.46875 -4.429688 38.90625 -4.109375 C 40.34375 -3.796875 41.726562 -3.351562 43.0625 -2.78125 Z M 43.0625 0 "/></g></g></g><g fill="#000000" fill-opacity="1"><g transform="translate(946.163536, 451.055041)"><g><path d="M 0.953125 -67 L 25.265625 -67 L 25.265625 -64.21875 C 24.054688 -63.707031 22.84375 -63.257812 21.625 -62.875 C 20.414062 -62.488281 19.207031 -62.140625 18 -61.828125 L 18 -22.6875 C 18 -19.300781 18.363281 -16.472656 19.09375 -14.203125 C 19.820312 -11.941406 20.890625 -10.125 22.296875 -8.75 C 23.703125 -7.382812 25.441406 -6.394531 27.515625 -5.78125 C 29.585938 -5.175781 31.929688 -4.875 34.546875 -4.875 C 39.585938 -4.875 43.507812 -6.257812 46.3125 -9.03125 C 49.125 -11.8125 50.53125 -16.394531 50.53125 -22.78125 L 50.53125 -60.96875 C 49.0625 -61.476562 47.6875 -62.003906 46.40625 -62.546875 C 45.132812 -63.085938 43.988281 -63.644531 42.96875 -64.21875 L 42.96875 -67 L 63.359375 -67 L 63.359375 -64.21875 C 62.140625 -63.519531 60.910156 -62.878906 59.671875 -62.296875 C 58.429688 -61.722656 57.171875 -61.28125 55.890625 -60.96875 L 55.890625 -22.59375 C 55.890625 -18.507812 55.347656 -15 54.265625 -12.0625 C 53.179688 -9.125 51.664062 -6.695312 49.71875 -4.78125 C 47.769531 -2.875 45.40625 -1.457031 42.625 -0.53125 C 39.851562 0.394531 36.78125 0.859375 33.40625 0.859375 C 25.425781 0.859375 19.332031 -0.941406 15.125 -4.546875 C 10.914062 -8.148438 8.8125 -13.6875 8.8125 -21.15625 L 8.8125 -61.828125 C 6.1875 -62.210938 3.566406 -63.007812 0.953125 -64.21875 Z M 0.953125 -67 "/></g></g></g><g fill="#000000" fill-opacity="1"><g transform="translate(1018.336778, 451.055041)"><g><path d="M 2.78125 0 L 2.78125 -2.78125 C 5.007812 -3.800781 7.625 -4.566406 10.625 -5.078125 L 10.625 -61.828125 C 9.15625 -62.140625 7.75 -62.503906 6.40625 -62.921875 C 5.070312 -63.335938 3.863281 -63.769531 2.78125 -64.21875 L 2.78125 -67 L 12.53125 -67 C 13.625 -67 14.898438 -67.03125 16.359375 -67.09375 C 17.828125 -67.15625 19.34375 -67.234375 20.90625 -67.328125 C 22.46875 -67.421875 23.96875 -67.515625 25.40625 -67.609375 C 26.84375 -67.710938 28.039062 -67.765625 29 -67.765625 C 39.84375 -67.765625 48.179688 -64.859375 54.015625 -59.046875 C 59.859375 -53.242188 62.78125 -45.015625 62.78125 -34.359375 C 62.78125 -29.316406 62.0625 -24.640625 60.625 -20.328125 C 59.1875 -16.023438 57 -12.3125 54.0625 -9.1875 C 51.132812 -6.0625 47.421875 -3.601562 42.921875 -1.8125 C 38.421875 -0.03125 33.109375 0.859375 26.984375 0.859375 C 26.023438 0.859375 24.941406 0.8125 23.734375 0.71875 C 22.523438 0.625 21.25 0.523438 19.90625 0.421875 C 18.5625 0.328125 17.203125 0.234375 15.828125 0.140625 C 14.460938 0.046875 13.175781 0 11.96875 0 Z M 27.65625 -62.78125 C 26 -62.78125 24.40625 -62.765625 22.875 -62.734375 C 21.34375 -62.703125 20.128906 -62.59375 19.234375 -62.40625 L 19.234375 -4.40625 C 19.554688 -4.34375 20.128906 -4.296875 20.953125 -4.265625 C 21.785156 -4.234375 22.679688 -4.195312 23.640625 -4.15625 C 24.597656 -4.125 25.503906 -4.109375 26.359375 -4.109375 C 27.222656 -4.109375 27.847656 -4.109375 28.234375 -4.109375 C 32.640625 -4.109375 36.375 -4.9375 39.4375 -6.59375 C 42.5 -8.257812 45 -10.476562 46.9375 -13.25 C 48.882812 -16.03125 50.304688 -19.238281 51.203125 -22.875 C 52.097656 -26.507812 52.546875 -30.335938 52.546875 -34.359375 C 52.546875 -37.484375 52.113281 -40.71875 51.25 -44.0625 C 50.382812 -47.414062 48.976562 -50.476562 47.03125 -53.25 C 45.09375 -56.03125 42.523438 -58.3125 39.328125 -60.09375 C 36.140625 -61.882812 32.25 -62.78125 27.65625 -62.78125 Z M 27.65625 -62.78125 "/></g></g></g><g fill="#000000" fill-opacity="1"><g transform="translate(1093.950601, 451.055041)"><g><path d="M 29.09375 0 L 4.59375 0 L 4.59375 -2.78125 C 7.082031 -3.925781 9.632812 -4.691406 12.25 -5.078125 L 12.25 -61.828125 C 10.976562 -62.078125 9.703125 -62.410156 8.421875 -62.828125 C 7.148438 -63.242188 5.875 -63.707031 4.59375 -64.21875 L 4.59375 -67 L 29.09375 -67 L 29.09375 -64.21875 C 27.945312 -63.707031 26.703125 -63.242188 25.359375 -62.828125 C 24.023438 -62.410156 22.71875 -62.078125 21.4375 -61.828125 L 21.4375 -5.078125 C 22.78125 -4.816406 24.117188 -4.492188 25.453125 -4.109375 C 26.796875 -3.734375 28.007812 -3.289062 29.09375 -2.78125 Z M 29.09375 0 "/></g></g></g><g fill="#000000" fill-opacity="1"><g transform="translate(1135.539935, 451.055041)"><g><path d="M 5.078125 -33.5 C 5.078125 -38.476562 5.757812 -43.085938 7.125 -47.328125 C 8.5 -51.566406 10.476562 -55.234375 13.0625 -58.328125 C 15.644531 -61.421875 18.816406 -63.828125 22.578125 -65.546875 C 26.347656 -67.273438 30.625 -68.140625 35.40625 -68.140625 C 40.195312 -68.140625 44.472656 -67.273438 48.234375 -65.546875 C 51.992188 -63.828125 55.164062 -61.421875 57.75 -58.328125 C 60.34375 -55.234375 62.320312 -51.566406 63.6875 -47.328125 C 65.0625 -43.085938 65.75 -38.476562 65.75 -33.5 C 65.75 -28.519531 65.0625 -23.90625 63.6875 -19.65625 C 62.320312 -15.414062 60.34375 -11.75 57.75 -8.65625 C 55.164062 -5.5625 51.992188 -3.148438 48.234375 -1.421875 C 44.472656 0.292969 40.195312 1.15625 35.40625 1.15625 C 30.625 1.15625 26.347656 0.292969 22.578125 -1.421875 C 18.816406 -3.148438 15.644531 -5.5625 13.0625 -8.65625 C 10.476562 -11.75 8.5 -15.414062 7.125 -19.65625 C 5.757812 -23.90625 5.078125 -28.519531 5.078125 -33.5 Z M 15.3125 -33.5 C 15.3125 -29.414062 15.738281 -25.570312 16.59375 -21.96875 C 17.457031 -18.363281 18.75 -15.21875 20.46875 -12.53125 C 22.195312 -9.851562 24.367188 -7.734375 26.984375 -6.171875 C 29.597656 -4.609375 32.691406 -3.828125 36.265625 -3.828125 C 39.523438 -3.828125 42.363281 -4.609375 44.78125 -6.171875 C 47.207031 -7.734375 49.203125 -9.851562 50.765625 -12.53125 C 52.328125 -15.21875 53.507812 -18.363281 54.3125 -21.96875 C 55.113281 -25.570312 55.515625 -29.414062 55.515625 -33.5 C 55.515625 -37.582031 55.097656 -41.425781 54.265625 -45.03125 C 53.429688 -48.632812 52.15625 -51.773438 50.4375 -54.453125 C 48.71875 -57.128906 46.546875 -59.25 43.921875 -60.8125 C 41.304688 -62.382812 38.210938 -63.171875 34.640625 -63.171875 C 31.128906 -63.171875 28.144531 -62.382812 25.6875 -60.8125 C 23.238281 -59.25 21.25 -57.128906 19.71875 -54.453125 C 18.1875 -51.773438 17.066406 -48.632812 16.359375 -45.03125 C 15.660156 -41.425781 15.3125 -37.582031 15.3125 -33.5 Z M 15.3125 -33.5 "/></g></g></g><g fill="#000000" fill-opacity="1"><g transform="translate(1214.212245, 451.055041)"><g><path d="M 14.359375 -6.609375 C 15.117188 -5.835938 16.101562 -5.179688 17.3125 -4.640625 C 18.53125 -4.097656 20.351562 -3.828125 22.78125 -3.828125 C 24.820312 -3.828125 26.734375 -4.097656 28.515625 -4.640625 C 30.304688 -5.179688 31.851562 -5.976562 33.15625 -7.03125 C 34.46875 -8.082031 35.503906 -9.359375 36.265625 -10.859375 C 37.035156 -12.359375 37.421875 -14.066406 37.421875 -15.984375 C 37.421875 -18.535156 36.640625 -20.671875 35.078125 -22.390625 C 33.515625 -24.117188 31.566406 -25.648438 29.234375 -26.984375 C 26.910156 -28.328125 24.375 -29.632812 21.625 -30.90625 C 18.882812 -32.1875 16.347656 -33.703125 14.015625 -35.453125 C 11.691406 -37.210938 9.75 -39.316406 8.1875 -41.765625 C 6.625 -44.222656 5.84375 -47.304688 5.84375 -51.015625 C 5.84375 -53.691406 6.316406 -56.082031 7.265625 -58.1875 C 8.222656 -60.289062 9.578125 -62.078125 11.328125 -63.546875 C 13.085938 -65.015625 15.179688 -66.144531 17.609375 -66.9375 C 20.035156 -67.738281 22.75 -68.140625 25.75 -68.140625 C 29.632812 -68.140625 33.1875 -67.835938 36.40625 -67.234375 C 39.632812 -66.628906 42.175781 -65.878906 44.03125 -64.984375 C 44.03125 -63.898438 43.945312 -62.640625 43.78125 -61.203125 C 43.625 -59.765625 43.429688 -58.28125 43.203125 -56.75 C 42.984375 -55.21875 42.742188 -53.734375 42.484375 -52.296875 C 42.234375 -50.867188 41.984375 -49.609375 41.734375 -48.515625 L 39.234375 -48.515625 L 35.40625 -61.640625 C 34.257812 -62.148438 32.804688 -62.53125 31.046875 -62.78125 C 29.296875 -63.039062 27.429688 -63.171875 25.453125 -63.171875 C 22.203125 -63.171875 19.585938 -62.257812 17.609375 -60.4375 C 15.628906 -58.613281 14.640625 -56.078125 14.640625 -52.828125 C 14.640625 -50.210938 15.421875 -48.007812 16.984375 -46.21875 C 18.546875 -44.4375 20.507812 -42.84375 22.875 -41.4375 C 25.238281 -40.03125 27.773438 -38.671875 30.484375 -37.359375 C 33.191406 -36.054688 35.722656 -34.546875 38.078125 -32.828125 C 40.441406 -31.109375 42.40625 -29.066406 43.96875 -26.703125 C 45.539062 -24.335938 46.328125 -21.398438 46.328125 -17.890625 C 46.328125 -15.023438 45.796875 -12.410156 44.734375 -10.046875 C 43.679688 -7.691406 42.164062 -5.679688 40.1875 -4.015625 C 38.21875 -2.359375 35.796875 -1.082031 32.921875 -0.1875 C 30.046875 0.707031 26.789062 1.15625 23.15625 1.15625 C 19.132812 1.15625 15.53125 0.675781 12.34375 -0.28125 C 9.15625 -1.238281 6.890625 -2.257812 5.546875 -3.34375 C 5.609375 -4.4375 5.71875 -5.75 5.875 -7.28125 C 6.039062 -8.8125 6.234375 -10.390625 6.453125 -12.015625 C 6.679688 -13.640625 6.921875 -15.21875 7.171875 -16.75 C 7.429688 -18.28125 7.6875 -19.585938 7.9375 -20.671875 L 10.4375 -20.671875 Z M 14.359375 -6.609375 "/></g></g></g></g></g></svg>